<svg width="31" height="32" viewBox="0 0 31 32" fill="none" xmlns="http://www.w3.org/2000/svg">
<path d="M15.7052 0.509033C24.154 0.509033 30.9998 7.35489 30.9998 15.8036C30.9998 24.2524 24.154 31.0982 15.7052 31.0982C7.25651 31.0982 0.410645 24.2524 0.410645 15.8036C0.410645 7.35489 7.25651 0.509033 15.7052 0.509033ZM17.3387 6.76758C16.7514 6.76758 16.1702 6.85935 15.589 7.03677C15.0078 7.21418 14.4511 7.4589 13.9127 7.77091C13.3805 8.08292 12.8788 8.44999 12.42 8.87212C11.9611 9.29425 11.5635 9.74697 11.2209 10.2364C10.8844 10.7197 10.6152 11.2336 10.4255 11.772C10.2359 12.3103 10.138 12.8426 10.138 13.3687C10.138 13.9866 10.2298 14.5311 10.4072 15.0083C10.5846 15.4855 10.8232 15.9137 11.1169 16.2931C11.4105 16.6724 11.7409 17.0088 12.1202 17.3025C12.4934 17.5962 12.8788 17.8653 13.2703 18.1223C13.6619 18.3731 14.0473 18.6178 14.4205 18.8503C14.7937 19.0828 15.1302 19.3214 15.4238 19.5661C15.7175 19.8108 15.95 20.0739 16.1335 20.3614C16.3109 20.6428 16.4027 20.9671 16.4027 21.3342C16.4027 21.8542 16.2375 22.2702 15.901 22.57C15.5645 22.8759 15.1363 23.0288 14.6101 23.0288C14.3654 23.0288 14.1574 22.9982 13.98 22.9431C13.8026 22.8881 13.6496 22.8269 13.5273 22.7596C13.4049 22.6923 13.3132 22.625 13.2459 22.5638L13.1235 22.4476C13.0501 22.3069 12.9522 22.2335 12.836 22.2335C12.7442 22.2335 12.6402 22.2824 12.524 22.3742C12.4077 22.466 12.2976 22.5883 12.1997 22.7229C12.1018 22.8636 12.0162 23.0104 11.9489 23.1756C11.8816 23.3347 11.851 23.4876 11.851 23.6345C11.851 23.6712 11.8938 23.7568 11.9734 23.8914C12.059 24.0199 12.2058 24.1606 12.4138 24.3013C12.6219 24.442 12.9094 24.5705 13.2642 24.6867C13.6252 24.803 14.0718 24.858 14.6163 24.858C15.1485 24.858 15.6502 24.7663 16.1213 24.5766C16.5862 24.387 16.9961 24.13 17.3387 23.8058C17.6813 23.4815 17.9505 23.1022 18.1463 22.6617C18.342 22.2212 18.4399 21.7624 18.4399 21.273C18.4399 20.7652 18.3481 20.3186 18.1707 19.9271C17.9933 19.5355 17.7547 19.1807 17.4549 18.8625C17.1613 18.5444 16.8248 18.2508 16.4455 17.9877C16.0723 17.7246 15.6869 17.4677 15.2953 17.2169C14.9038 16.966 14.5184 16.7152 14.1452 16.4644C13.772 16.2135 13.4355 15.9382 13.1357 15.6323C12.8421 15.3326 12.6035 14.9961 12.42 14.629C12.2425 14.2619 12.1508 13.8459 12.1508 13.381C12.1508 12.9405 12.2303 12.5122 12.3955 12.1085C12.5607 11.7047 12.7748 11.3254 13.044 10.9705C13.3132 10.6218 13.6191 10.2976 13.9739 10.0039C14.3226 9.71026 14.6897 9.46555 15.0629 9.25754C15.4361 9.04954 15.8154 8.89047 16.1824 8.78035C16.5556 8.66411 16.8982 8.60905 17.2163 8.60905C17.7241 8.60905 18.0851 8.72529 18.2992 8.96389C18.5133 9.20248 18.6173 9.52673 18.6173 9.93662C18.6173 10.3404 18.4889 10.7564 18.238 11.1785C17.9811 11.6068 17.6691 11.9983 17.2898 12.3532C16.9166 12.708 16.5128 13.0017 16.0845 13.228C15.6563 13.4544 15.2709 13.5706 14.916 13.5706C14.8059 13.5706 14.7142 13.5584 14.6285 13.54C14.5429 13.5217 14.4756 13.5094 14.4205 13.5033C14.3654 13.4972 14.3226 13.5156 14.2981 13.5461C14.2675 13.5767 14.2553 13.644 14.2553 13.748C14.2553 13.8765 14.2859 14.0172 14.3532 14.1824C14.4205 14.3415 14.5123 14.5005 14.6346 14.6474C14.757 14.7942 14.9038 14.9165 15.0873 15.0144C15.2709 15.1123 15.4666 15.1613 15.693 15.1613C15.95 15.1613 16.2558 15.094 16.5984 14.9594C16.941 14.8248 17.2959 14.6351 17.6568 14.3965C18.0178 14.1579 18.3726 13.8704 18.7213 13.5461C19.0701 13.2158 19.3821 12.8609 19.6574 12.4755C19.9327 12.0901 20.1529 11.6802 20.3242 11.2458C20.4894 10.8115 20.575 10.371 20.575 9.91827C20.575 9.4472 20.5016 9.01895 20.3487 8.63352C20.1957 8.2481 19.9877 7.92385 19.7124 7.64855C19.4371 7.37325 19.1006 7.16524 18.6969 7.0123C18.2931 6.841 17.8404 6.76758 17.3387 6.76758Z" fill="#0799FF"/>
</svg>
