<svg width="39" height="24" viewBox="0 0 39 24" fill="none" xmlns="http://www.w3.org/2000/svg">
<path d="M7.97038 4.70346C14.3156 -1.50906 24.6033 -1.50906 30.9485 4.70346L31.7122 5.45114C32.0294 5.76177 32.0294 6.26539 31.7122 6.57602L29.0999 9.13371C28.9412 9.28902 28.684 9.28902 28.5254 9.13371L27.4745 8.1048C23.0479 3.77079 15.871 3.77079 11.4444 8.1048L10.319 9.20667C10.1603 9.36199 9.90316 9.36199 9.74453 9.20667L7.1322 6.64899C6.81494 6.33836 6.81494 5.83474 7.1322 5.52411L7.97038 4.70346ZM36.3511 9.99302L38.676 12.2694C38.9933 12.58 38.9933 13.0836 38.676 13.3943L28.1926 23.6586C27.8753 23.9692 27.3609 23.9692 27.0437 23.6586C27.0437 23.6586 27.0437 23.6586 27.0437 23.6586L19.6031 16.3737C19.5238 16.296 19.3952 16.296 19.3159 16.3737C19.3159 16.3737 19.3159 16.3737 19.3159 16.3737L11.8755 23.6586C11.5583 23.9692 11.0439 23.9692 10.7266 23.6586C10.7266 23.6586 10.7266 23.6586 10.7266 23.6586L0.242829 13.3941C-0.0744327 13.0835 -0.0744327 12.5799 0.242829 12.2692L2.56781 9.99289C2.88507 9.68227 3.39946 9.68227 3.71672 9.99289L11.1574 17.2779C11.2367 17.3556 11.3653 17.3556 11.4446 17.2779C11.4446 17.2779 11.4446 17.2779 11.4446 17.2779L18.8849 9.99289C19.2021 9.68226 19.7165 9.68225 20.0338 9.99287C20.0338 9.99287 20.0338 9.99288 20.0338 9.99288L27.4744 17.2779C27.5537 17.3556 27.6823 17.3556 27.7616 17.2779L35.2022 9.99302C35.5194 9.6824 36.0338 9.6824 36.3511 9.99302Z" fill="#3B99FC"/>
</svg>
